<?xml version="1.0" encoding="utf-8"?>
<!-- Generator: Adobe Illustrator 22.1.0, SVG Export Plug-In . SVG Version: 6.00 Build 0)  -->
<svg version="1.1" id="Layer_1" xmlns="http://www.w3.org/2000/svg" xmlns:xlink="http://www.w3.org/1999/xlink" x="0px" y="0px"
	 viewBox="0 0 250.8 48.4" style="enable-background:new 0 0 250.8 48.4;" xml:space="preserve">
<style type="text/css">
	.st0{enable-background:new    ;}
	.st1{fill:#5A3B4C;}
</style>
<g class="st0">
	<path class="st1" d="M9.3,29.2H10c-0.6,1.7-1.4,3.1-2.5,4.1c-1.1,1-2.2,1.5-3.3,1.5c-1,0-1.7-0.4-2.3-1.1C1.3,33,1,32,1,30.6
		c0-1.6,0.4-3.2,1.2-5.1c0.8-1.8,1.9-3.4,3.4-4.7C7.1,19.6,8.3,19,9.4,19c0.6,0,1.2,0.2,1.6,0.6c0.4,0.4,0.7,0.9,0.7,1.5
		c0,0.9-0.3,1.3-1,1.3c-0.7,0-1.1-0.5-1.1-1.4c0-0.7-0.3-1.1-0.8-1.1c-0.7,0-1.5,0.6-2.3,1.9c-0.9,1.2-1.7,2.9-2.3,5
		c-0.6,2.1-1,3.7-1,4.7c0,0.7,0.2,1.2,0.5,1.6c0.3,0.4,0.8,0.6,1.3,0.6c0.7,0,1.5-0.4,2.3-1.2C8.1,31.7,8.8,30.6,9.3,29.2z"/>
	<path class="st1" d="M27.5,19.3h2.2l-3.2,10.6c-0.5,1.5-0.7,2.5-0.7,2.8c0,0.2,0.1,0.4,0.2,0.6c0.1,0.1,0.3,0.2,0.5,0.2
		c0.8,0,1.8-1,2.9-2.9H30c-0.5,1.1-1.1,2.1-2,3c-0.9,0.9-1.7,1.3-2.4,1.3c-0.6,0-1-0.2-1.3-0.6c-0.3-0.4-0.5-0.9-0.5-1.6
		c0-0.5,0.1-1.1,0.4-1.9c-0.5,0.9-1.3,1.8-2.4,2.8c-1,0.9-2,1.4-2.9,1.4c-0.8,0-1.6-0.4-2.2-1.1c-0.6-0.7-0.9-1.7-0.9-2.9
		c0-1.6,0.5-3.4,1.4-5.3c0.9-1.9,2.2-3.4,3.7-4.7c1.5-1.3,2.8-1.9,3.9-1.9c0.6,0,1.1,0.2,1.5,0.5c0.4,0.3,0.6,0.8,0.7,1.4L27.5,19.3
		z M18,31.4c0,0.8,0.1,1.4,0.4,1.8c0.2,0.4,0.6,0.6,1.1,0.6c0.8,0,1.7-0.6,2.9-1.8c1.1-1.2,2.1-3,2.9-5.4c0.8-2.4,1.2-4,1.2-4.9
		c0-0.5-0.1-0.9-0.4-1.3c-0.3-0.4-0.6-0.5-1.1-0.5c-1.5,0-3,1.5-4.6,4.4C18.8,27.2,18,29.6,18,31.4z"/>
	<path class="st1" d="M41.1,30.4h0.9c-0.6,1.2-1.3,2.2-2.2,3.1c-0.9,0.9-1.8,1.4-2.6,1.4c-0.6,0-1.1-0.2-1.5-0.6
		c-0.4-0.4-0.6-1-0.6-1.8c0-0.6,0.3-1.9,1-3.7l2.1-5.5c0.5-1.3,0.7-2.1,0.7-2.3c0-0.2-0.1-0.4-0.2-0.5c-0.1-0.1-0.3-0.2-0.5-0.2
		c-0.5,0-1,0.4-1.7,1.1c-0.6,0.7-1.1,1.4-1.4,2h-0.9c0.7-1.3,1.4-2.3,2.3-3.1c0.8-0.8,1.6-1.1,2.4-1.1c0.6,0,1,0.2,1.4,0.6
		c0.4,0.4,0.5,0.9,0.5,1.5c0,0.6-0.3,1.8-1,3.5l-1.7,4.7c-0.6,1.7-1,2.8-1,3.2c0,0.3,0.1,0.6,0.2,0.8c0.1,0.2,0.3,0.3,0.6,0.3
		C38.8,33.6,39.9,32.5,41.1,30.4z M39.7,11c0-0.4,0.2-0.8,0.5-1.1c0.3-0.3,0.7-0.5,1.1-0.5s0.8,0.2,1.1,0.5c0.3,0.3,0.5,0.7,0.5,1.1
		s-0.2,0.8-0.5,1.1c-0.3,0.3-0.7,0.5-1.1,0.5c-0.4,0-0.8-0.2-1.1-0.5C39.9,11.8,39.7,11.5,39.7,11z"/>
	<path class="st1" d="M55.3,19.5L55,20.3h-2.7l-2.4,7.9c-0.8,2.6-1.2,4.1-1.2,4.5c0,0.3,0.1,0.5,0.2,0.7c0.1,0.2,0.3,0.2,0.6,0.2
		c0.4,0,1-0.4,1.7-1.2c0.7-0.8,1.3-1.8,1.9-3.1h0.8c-0.7,1.8-1.6,3.2-2.5,4.1c-0.9,0.9-1.8,1.4-2.6,1.4c-0.6,0-1.1-0.2-1.5-0.7
		c-0.4-0.4-0.6-1-0.6-1.6c0-0.6,0.4-2.1,1.1-4.5l2.3-7.7h-2.5l0.3-0.8h2.5l1.7-5.5h2.2l-1.7,5.5H55.3z"/>
	<path class="st1" d="M64.8,30h0.8c-1.2,3.2-2.8,4.8-4.7,4.8c-0.7,0-1.2-0.2-1.6-0.7s-0.6-1-0.6-1.7c0-0.7,0.4-2.3,1.2-4.8l4.2-13.9
		c0.4-1.2,0.5-1.9,0.5-2.1c0-0.3-0.1-0.5-0.2-0.6c-0.2-0.1-0.6-0.2-1.2-0.2h-0.7l0.2-0.8c2,0,3.5-0.3,4.4-0.7h0.5l-5.8,19.2
		c-0.1,0.3-0.3,0.8-0.5,1.6c-0.3,1-0.5,1.8-0.5,2.4c0,0.4,0.1,0.6,0.2,0.8c0.1,0.2,0.3,0.3,0.6,0.3c0.4,0,0.9-0.3,1.5-0.8
		C63.7,32.3,64.3,31.4,64.8,30z"/>
	<path class="st1" d="M76.7,30.4h0.9c-0.6,1.2-1.3,2.2-2.2,3.1c-0.9,0.9-1.8,1.4-2.6,1.4c-0.6,0-1.1-0.2-1.5-0.6
		c-0.4-0.4-0.6-1-0.6-1.8c0-0.6,0.3-1.9,1-3.7l2.1-5.5c0.5-1.3,0.7-2.1,0.7-2.3c0-0.2-0.1-0.4-0.2-0.5c-0.1-0.1-0.3-0.2-0.5-0.2
		c-0.5,0-1,0.4-1.7,1.1c-0.6,0.7-1.1,1.4-1.4,2h-0.9c0.7-1.3,1.4-2.3,2.3-3.1c0.8-0.8,1.6-1.1,2.4-1.1c0.6,0,1,0.2,1.4,0.6
		c0.4,0.4,0.5,0.9,0.5,1.5c0,0.6-0.3,1.8-1,3.5l-1.7,4.7c-0.6,1.7-1,2.8-1,3.2c0,0.3,0.1,0.6,0.2,0.8c0.1,0.2,0.3,0.3,0.6,0.3
		C74.4,33.6,75.5,32.5,76.7,30.4z M75.3,11c0-0.4,0.2-0.8,0.5-1.1c0.3-0.3,0.7-0.5,1.1-0.5s0.8,0.2,1.1,0.5c0.3,0.3,0.5,0.7,0.5,1.1
		s-0.2,0.8-0.5,1.1c-0.3,0.3-0.7,0.5-1.1,0.5c-0.4,0-0.8-0.2-1.1-0.5C75.5,11.8,75.3,11.5,75.3,11z"/>
</g>
<g class="st0">
	<path class="st1" d="M99.2,30.9h0.9c-0.7,1.3-1.5,2.3-2.2,2.9c-0.8,0.7-1.5,1-2.3,1c-0.5,0-1-0.2-1.4-0.5c-0.4-0.3-0.6-0.8-0.6-1.5
		c0-0.5,0.3-1.6,0.8-3.2l1.9-5.5c0.5-1.5,0.8-2.5,0.8-2.9c0-0.4-0.1-0.7-0.3-0.9c-0.2-0.2-0.4-0.3-0.8-0.3c-0.9,0-2.1,1.1-3.6,3.2
		c-1.5,2.1-2.7,5-3.8,8.4l-0.9,2.9h-2.2l3.2-10.3c0.6-1.9,0.9-3,0.9-3.3c0-0.2,0-0.4-0.1-0.5s-0.2-0.1-0.3-0.1
		c-0.7,0-1.6,0.9-2.5,2.6h-0.8c1.5-2.7,2.9-4.1,4.3-4.1c0.5,0,0.8,0.1,1.1,0.4c0.2,0.3,0.4,0.7,0.4,1.3c0,1-0.4,2.6-1.2,4.8
		c2.2-4.3,4.3-6.5,6.4-6.5c0.7,0,1.2,0.2,1.7,0.7c0.5,0.4,0.7,1.1,0.7,1.9c0,0.5-0.2,1.6-0.7,3l-1.9,5.8c-0.5,1.6-0.8,2.4-0.8,2.6
		c0,0.2,0.1,0.4,0.2,0.5c0.1,0.1,0.3,0.2,0.5,0.2c0.4,0,0.8-0.2,1.3-0.7C98.2,32.5,98.7,31.8,99.2,30.9z"/>
</g>
<g class="st0">
	<path class="st1" d="M125.1,30.4h0.9c-0.6,1.2-1.3,2.2-2.2,3.1c-0.9,0.9-1.8,1.4-2.6,1.4c-0.6,0-1.1-0.2-1.5-0.6
		c-0.4-0.4-0.6-1-0.6-1.8c0-0.6,0.3-1.9,1-3.7l2.1-5.5c0.5-1.3,0.7-2.1,0.7-2.3c0-0.2-0.1-0.4-0.2-0.5c-0.1-0.1-0.3-0.2-0.5-0.2
		c-0.5,0-1,0.4-1.7,1.1c-0.6,0.7-1.1,1.4-1.4,2h-0.9c0.7-1.3,1.4-2.3,2.3-3.1c0.8-0.8,1.6-1.1,2.4-1.1c0.6,0,1,0.2,1.4,0.6
		c0.4,0.4,0.5,0.9,0.5,1.5c0,0.6-0.3,1.8-1,3.5l-1.7,4.7c-0.6,1.7-1,2.8-1,3.2c0,0.3,0.1,0.6,0.2,0.8c0.1,0.2,0.3,0.3,0.6,0.3
		C122.9,33.6,123.9,32.5,125.1,30.4z M123.8,11c0-0.4,0.2-0.8,0.5-1.1c0.3-0.3,0.7-0.5,1.1-0.5s0.8,0.2,1.1,0.5
		c0.3,0.3,0.5,0.7,0.5,1.1s-0.2,0.8-0.5,1.1c-0.3,0.3-0.7,0.5-1.1,0.5c-0.4,0-0.8-0.2-1.1-0.5C123.9,11.8,123.8,11.5,123.8,11z"/>
</g>
<g class="st0">
	<path class="st1" d="M131.6,23.9h-0.8c0.5-1.3,1.1-2.5,1.9-3.5c0.8-1,1.5-1.4,2.3-1.4c0.5,0,0.9,0.2,1.2,0.6c0.3,0.4,0.4,1,0.4,1.9
		c0,1-0.3,2.5-0.8,4.5c0.1-0.1,0.3-0.6,0.6-1.3c0.9-2,1.7-3.5,2.3-4.4c0.7-0.9,1.3-1.3,2-1.3c0.4,0,0.8,0.1,1,0.4
		c0.3,0.3,0.4,0.6,0.4,1c0,0.4-0.1,0.7-0.3,0.9c-0.2,0.2-0.5,0.3-0.8,0.3c-0.3,0-0.7-0.2-1-0.6c-0.1-0.2-0.3-0.2-0.4-0.2
		c-0.6,0-1.5,1.4-2.8,4.3c-1.3,2.9-2.3,5.6-3,8.2l-0.4,1.3h-2.2l2.9-9.6c0.5-1.8,0.8-3.1,0.8-3.7c0-0.3,0-0.6-0.1-0.8
		c-0.1-0.2-0.2-0.3-0.4-0.3c-0.4,0-0.9,0.4-1.5,1.3C132.3,22.4,131.9,23.2,131.6,23.9z"/>
</g>
<g class="st0">
	<path class="st1" d="M145.9,26.9c0-2.3,0.8-4.2,2.3-5.7c1.5-1.5,3.4-2.3,5.6-2.3c2.2,0,4.1,0.8,5.6,2.3c1.5,1.5,2.3,3.4,2.3,5.7
		c0,2.5-0.8,4.5-2.3,5.9c-1.5,1.4-3.4,2.1-5.6,2.1s-4-0.7-5.6-2.2C146.7,31.3,145.9,29.3,145.9,26.9z M148.9,27
		c0,2.6,0.4,4.5,1.3,5.5c0.9,1.1,2.1,1.6,3.6,1.6c1.6,0,2.8-0.5,3.6-1.6c0.8-1.1,1.3-2.9,1.3-5.5c0-2.6-0.4-4.5-1.2-5.6
		s-2-1.7-3.6-1.7c-1.6,0-2.8,0.6-3.6,1.7C149.3,22.5,148.9,24.4,148.9,27z"/>
</g>
<g class="st0">
	<path class="st1" d="M181,30.9h0.9c-0.7,1.3-1.5,2.3-2.2,2.9c-0.8,0.7-1.5,1-2.3,1c-0.5,0-1-0.2-1.4-0.5c-0.4-0.3-0.6-0.8-0.6-1.5
		c0-0.5,0.3-1.6,0.8-3.2l1.9-5.5c0.5-1.5,0.8-2.5,0.8-2.9c0-0.4-0.1-0.7-0.3-0.9c-0.2-0.2-0.4-0.3-0.8-0.3c-0.9,0-2.1,1.1-3.6,3.2
		c-1.5,2.1-2.7,5-3.8,8.4l-0.9,2.9h-2.2l3.2-10.3c0.6-1.9,0.9-3,0.9-3.3c0-0.2,0-0.4-0.1-0.5s-0.2-0.1-0.3-0.1
		c-0.7,0-1.6,0.9-2.5,2.6h-0.8c1.5-2.7,2.9-4.1,4.3-4.1c0.5,0,0.8,0.1,1.1,0.4c0.2,0.3,0.4,0.7,0.4,1.3c0,1-0.4,2.6-1.2,4.8
		c2.2-4.3,4.3-6.5,6.4-6.5c0.7,0,1.2,0.2,1.7,0.7c0.5,0.4,0.7,1.1,0.7,1.9c0,0.5-0.2,1.6-0.7,3l-1.9,5.8c-0.5,1.6-0.8,2.4-0.8,2.6
		c0,0.2,0.1,0.4,0.2,0.5c0.1,0.1,0.3,0.2,0.5,0.2c0.4,0,0.8-0.2,1.3-0.7C180,32.5,180.5,31.8,181,30.9z"/>
</g>
<g class="st0">
	<path class="st1" d="M196.2,29.9c0,1.2-0.5,2.4-1.4,3.4s-2.4,1.6-4.2,1.6c-1.4,0-2.4-0.3-3.1-0.9c-0.7-0.6-1-1.3-1-2
		c0-0.4,0.1-0.7,0.3-1c0.2-0.3,0.5-0.4,0.8-0.4c0.7,0,1.1,0.4,1.1,1.1c0,0.2,0,0.4-0.1,0.7c-0.1,0.1-0.1,0.3-0.1,0.3
		c0,0.3,0.2,0.6,0.6,0.8s0.9,0.4,1.5,0.4c0.9,0,1.7-0.3,2.4-0.9c0.7-0.6,1.1-1.4,1.1-2.4c0-0.9-0.5-2.2-1.5-4.1
		c-1.2-2.2-1.8-3.7-1.8-4.7c0-1.3,0.5-2.4,1.5-3.2s2.2-1.3,3.5-1.3c0.9,0,1.8,0.2,2.4,0.7s1,1,1,1.5c0,0.7-0.3,1.1-0.9,1.1
		c-0.4,0-0.8-0.4-1-1.2c-0.2-0.9-0.8-1.3-1.7-1.3c-0.8,0-1.4,0.2-2,0.6c-0.6,0.4-0.8,1-0.8,1.6c0,0.9,0.4,2.2,1.3,3.7
		c0.8,1.4,1.4,2.5,1.7,3.3C196.1,28.3,196.2,29.1,196.2,29.9z"/>
	<path class="st1" d="M211.6,29.9h1c-0.6,1.3-1.4,2.4-2.5,3.4c-1,1-2,1.5-2.9,1.5c-0.6,0-1.2-0.2-1.7-0.7c-0.5-0.4-0.7-1.1-0.7-2
		c0-0.7,0.4-2.1,1.1-4.1l2.3-6.1c0.5-1.4,0.8-2.3,0.8-2.6c0-0.3-0.1-0.5-0.2-0.6c-0.1-0.1-0.3-0.2-0.6-0.2c-0.5,0-1.1,0.4-1.9,1.2
		c-0.7,0.8-1.2,1.5-1.5,2.2h-1c0.7-1.5,1.6-2.6,2.5-3.4c0.9-0.8,1.8-1.3,2.6-1.3c0.6,0,1.1,0.2,1.5,0.6c0.4,0.4,0.6,1,0.6,1.7
		c0,0.7-0.4,2-1.1,3.9l-1.9,5.2c-0.7,1.9-1.1,3.1-1.1,3.5c0,0.4,0.1,0.7,0.2,0.9c0.2,0.2,0.4,0.3,0.7,0.3
		C209.1,33.5,210.3,32.3,211.6,29.9z M210.1,8.5c0-0.5,0.2-0.9,0.5-1.2c0.3-0.3,0.8-0.5,1.2-0.5s0.9,0.2,1.2,0.5
		c0.3,0.3,0.5,0.8,0.5,1.2s-0.2,0.9-0.5,1.2c-0.3,0.3-0.8,0.5-1.2,0.5c-0.5,0-0.9-0.2-1.2-0.5C210.3,9.4,210.1,9,210.1,8.5z"/>
	<path class="st1" d="M232.2,30.7h1c-0.6,1.1-1.4,2.1-2.3,2.9s-1.8,1.3-2.5,1.3c-0.7,0-1.2-0.2-1.6-0.6s-0.5-1.1-0.5-1.9
		c0-0.4,0-0.7,0.1-1.1c-1.9,2.4-3.7,3.6-5.3,3.6c-0.9,0-1.7-0.4-2.3-1.1c-0.6-0.7-1-1.8-1-3.2c0-1.9,0.5-4,1.6-6.2
		c1.1-2.2,2.4-3.9,4-5.2c1.6-1.2,2.9-1.8,4.1-1.8c0.6,0,1.1,0.1,1.5,0.4c0.4,0.3,0.8,0.7,1,1.3l2.4-8.1c0.3-1,0.4-1.5,0.4-1.7
		c0-0.3-0.1-0.5-0.3-0.7c-0.2-0.1-0.6-0.2-1.3-0.2h-0.6l0.3-0.8c1.9,0,3.5-0.2,4.6-0.7h0.5l-6.4,21.1c-0.8,2.6-1.2,4.1-1.2,4.6
		c0,0.3,0.1,0.6,0.2,0.8c0.1,0.2,0.3,0.2,0.5,0.2c0.4,0,0.8-0.2,1.3-0.7C231.1,32.3,231.6,31.6,232.2,30.7z M220.1,31.5
		c0,0.7,0.1,1.3,0.4,1.7c0.3,0.4,0.6,0.6,1.2,0.6c0.9,0,1.9-0.6,3.1-1.9s2.3-3.3,3.2-6.2c1-2.9,1.5-4.7,1.5-5.4
		c0-0.5-0.2-0.9-0.5-1.3c-0.3-0.4-0.8-0.6-1.3-0.6c-0.9,0-1.8,0.5-2.7,1.5c-1,1-2,2.8-3.1,5.3C220.7,27.7,220.1,29.8,220.1,31.5z"/>
</g>
<g class="st0">
	<path class="st1" d="M248.3,29.2h1c-1.7,3.8-3.9,5.7-6.5,5.7c-1.1,0-2-0.4-2.7-1.2c-0.7-0.8-1-1.8-1-3.1c0-1.7,0.4-3.5,1.3-5.6
		s2.1-3.9,3.8-5.4c1.6-1.5,3.1-2.3,4.3-2.3c0.7,0,1.3,0.2,1.7,0.7c0.4,0.5,0.6,1.1,0.6,1.8c0,1.4-0.7,2.8-2.2,4.2
		c-1.4,1.3-3.6,2.6-6.5,3.8c-0.4,1.2-0.6,2.3-0.6,3.3c0,0.9,0.2,1.5,0.5,1.9c0.3,0.4,0.8,0.6,1.5,0.6
		C245.4,33.7,247,32.2,248.3,29.2z M242.4,26.8c1.7-0.8,3.3-1.8,4.6-3.2c1.4-1.4,2.1-2.6,2.1-3.7c0-0.5-0.1-0.9-0.3-1.1
		s-0.5-0.4-0.9-0.4c-0.8,0-1.7,0.8-2.8,2.3S243.1,24.3,242.4,26.8z"/>
</g>
<g>
	<circle class="st1" cx="154.4" cy="26.9" r="8.5"/>
</g>
</svg>
